<mxfile host="65bd71144e" scale="1" border="40">
    <diagram name="Page-1" id="0783ab3e-0a74-02c8-0abd-f7b4e66b4bec">
        <mxGraphModel dx="2727" dy="1820" grid="1" gridSize="10" guides="1" tooltips="1" connect="1" arrows="1" fold="1" page="0" pageScale="1" pageWidth="850" pageHeight="1100" background="#ffffff" math="0" shadow="0">
            <root>
                <mxCell id="0"/>
                <mxCell id="1" parent="0"/>
                <mxCell id="1c1d494c118603dd-1" value="example of&amp;nbsp;inefficient registration and activation process" style="swimlane;html=1;childLayout=stackLayout;startSize=50;rounded=0;shadow=0;comic=0;labelBackgroundColor=none;strokeWidth=1;fontFamily=Verdana;fontSize=12;align=center;strokeColor=#000000;" parent="1" vertex="1">
                    <mxGeometry x="100" y="10" width="720" height="1200" as="geometry">
                        <mxRectangle x="40" y="20" width="440" height="30" as="alternateBounds"/>
                    </mxGeometry>
                </mxCell>
                <mxCell id="jAqfNEqAzGO9UF7VZpTB-259" style="edgeStyle=orthogonalEdgeStyle;shape=connector;rounded=0;orthogonalLoop=1;jettySize=auto;html=1;entryX=0.5;entryY=0;entryDx=0;entryDy=0;labelBackgroundColor=none;strokeColor=#000000;strokeWidth=1;align=center;verticalAlign=middle;fontFamily=Verdana;fontSize=12;fontColor=default;startArrow=none;startFill=0;endArrow=classicThin;endFill=1;startSize=5;endSize=5;exitX=0.5;exitY=1;exitDx=0;exitDy=0;" parent="1c1d494c118603dd-1" source="jAqfNEqAzGO9UF7VZpTB-253" target="105" edge="1">
                    <mxGeometry relative="1" as="geometry">
                        <mxPoint x="835" y="160" as="sourcePoint"/>
                    </mxGeometry>
                </mxCell>
                <mxCell id="jAqfNEqAzGO9UF7VZpTB-1" value="customer service" style="swimlane;html=1;startSize=20;strokeColor=#000000;" parent="1c1d494c118603dd-1" vertex="1">
                    <mxGeometry y="50" width="360" height="1150" as="geometry"/>
                </mxCell>
                <mxCell id="jAqfNEqAzGO9UF7VZpTB-306" value="store registration code&lt;br&gt;(manually)" style="rounded=1;whiteSpace=wrap;html=1;shadow=0;comic=0;labelBackgroundColor=none;strokeWidth=1;fontFamily=Verdana;fontSize=12;align=center;arcSize=50;strokeColor=#000000;" parent="jAqfNEqAzGO9UF7VZpTB-1" vertex="1">
                    <mxGeometry x="30" y="811" width="165" height="49" as="geometry"/>
                </mxCell>
                <mxCell id="jAqfNEqAzGO9UF7VZpTB-312" value="generate activation code and send&lt;br&gt;(via e-mail)" style="rounded=1;whiteSpace=wrap;html=1;shadow=0;comic=0;labelBackgroundColor=none;strokeWidth=1;fontFamily=Verdana;fontSize=12;align=center;arcSize=50;strokeColor=#000000;" parent="jAqfNEqAzGO9UF7VZpTB-1" vertex="1">
                    <mxGeometry x="172.5" y="860" width="175" height="60" as="geometry"/>
                </mxCell>
                <mxCell id="jAqfNEqAzGO9UF7VZpTB-314" value="use external&lt;br&gt;activation code generator&lt;br&gt;(manually)" style="shape=note;whiteSpace=wrap;html=1;rounded=0;shadow=0;comic=0;labelBackgroundColor=none;strokeWidth=1;fontFamily=Verdana;fontSize=12;align=center;size=20;strokeColor=#000000;" parent="jAqfNEqAzGO9UF7VZpTB-1" vertex="1">
                    <mxGeometry x="55" y="950" width="147.5" height="80" as="geometry"/>
                </mxCell>
                <mxCell id="jAqfNEqAzGO9UF7VZpTB-258" value="" style="whiteSpace=wrap;html=1;rounded=0;shadow=0;comic=0;labelBackgroundColor=none;strokeWidth=1;fillColor=#000000;fontFamily=Verdana;fontSize=12;align=center;rotation=0;strokeColor=#000000;" parent="jAqfNEqAzGO9UF7VZpTB-1" vertex="1">
                    <mxGeometry x="107.5" y="250" width="147" height="10" as="geometry"/>
                </mxCell>
                <mxCell id="jAqfNEqAzGO9UF7VZpTB-262" style="edgeStyle=orthogonalEdgeStyle;shape=connector;rounded=0;orthogonalLoop=1;jettySize=auto;html=1;labelBackgroundColor=none;strokeColor=#000000;strokeWidth=1;align=center;verticalAlign=middle;fontFamily=Verdana;fontSize=12;fontColor=default;startArrow=none;startFill=0;endArrow=classicThin;endFill=1;startSize=5;endSize=5;" parent="jAqfNEqAzGO9UF7VZpTB-1" source="jAqfNEqAzGO9UF7VZpTB-258" target="jAqfNEqAzGO9UF7VZpTB-261" edge="1">
                    <mxGeometry relative="1" as="geometry"/>
                </mxCell>
                <mxCell id="jAqfNEqAzGO9UF7VZpTB-255" value="grant access to installer" style="rounded=1;whiteSpace=wrap;html=1;shadow=0;comic=0;labelBackgroundColor=none;strokeWidth=1;fontFamily=Verdana;fontSize=12;align=center;arcSize=50;strokeColor=#000000;" parent="jAqfNEqAzGO9UF7VZpTB-1" vertex="1">
                    <mxGeometry x="202.5" y="298" width="125" height="40" as="geometry"/>
                </mxCell>
                <mxCell id="jAqfNEqAzGO9UF7VZpTB-260" style="edgeStyle=orthogonalEdgeStyle;shape=connector;rounded=0;orthogonalLoop=1;jettySize=auto;html=1;labelBackgroundColor=none;strokeColor=#000000;strokeWidth=1;align=center;verticalAlign=middle;fontFamily=Verdana;fontSize=12;fontColor=default;startArrow=none;startFill=0;endArrow=classicThin;endFill=1;startSize=5;endSize=5;" parent="jAqfNEqAzGO9UF7VZpTB-1" source="jAqfNEqAzGO9UF7VZpTB-258" target="jAqfNEqAzGO9UF7VZpTB-255" edge="1">
                    <mxGeometry relative="1" as="geometry"/>
                </mxCell>
                <mxCell id="jAqfNEqAzGO9UF7VZpTB-261" value="send installer verification code&lt;br&gt;(via e-mail)" style="rounded=1;whiteSpace=wrap;html=1;shadow=0;comic=0;labelBackgroundColor=none;strokeWidth=1;fontFamily=Verdana;fontSize=12;align=center;arcSize=50;strokeColor=#000000;" parent="jAqfNEqAzGO9UF7VZpTB-1" vertex="1">
                    <mxGeometry x="42.5" y="326" width="140" height="60" as="geometry"/>
                </mxCell>
                <mxCell id="jAqfNEqAzGO9UF7VZpTB-315" style="edgeStyle=none;rounded=0;html=1;dashed=1;labelBackgroundColor=none;startArrow=none;startFill=0;startSize=5;endArrow=oval;endFill=0;endSize=5;jettySize=auto;orthogonalLoop=1;strokeWidth=1;fontFamily=Verdana;fontSize=12;strokeColor=#000000;" parent="jAqfNEqAzGO9UF7VZpTB-1" source="jAqfNEqAzGO9UF7VZpTB-314" target="jAqfNEqAzGO9UF7VZpTB-312" edge="1">
                    <mxGeometry relative="1" as="geometry">
                        <mxPoint x="1487.5" y="819" as="sourcePoint"/>
                        <mxPoint x="1807.5" y="779" as="targetPoint"/>
                    </mxGeometry>
                </mxCell>
                <mxCell id="jAqfNEqAzGO9UF7VZpTB-320" style="edgeStyle=orthogonalEdgeStyle;shape=connector;rounded=0;orthogonalLoop=1;jettySize=auto;html=1;labelBackgroundColor=none;strokeColor=#000000;strokeWidth=1;align=center;verticalAlign=middle;fontFamily=Verdana;fontSize=12;fontColor=default;startArrow=none;startFill=0;endArrow=classicThin;endFill=1;startSize=5;endSize=5;" parent="jAqfNEqAzGO9UF7VZpTB-1" source="jAqfNEqAzGO9UF7VZpTB-319" target="jAqfNEqAzGO9UF7VZpTB-306" edge="1">
                    <mxGeometry relative="1" as="geometry"/>
                </mxCell>
                <mxCell id="jAqfNEqAzGO9UF7VZpTB-321" style="edgeStyle=orthogonalEdgeStyle;shape=connector;rounded=0;orthogonalLoop=1;jettySize=auto;html=1;labelBackgroundColor=none;strokeColor=#000000;strokeWidth=1;align=center;verticalAlign=middle;fontFamily=Verdana;fontSize=12;fontColor=default;startArrow=none;startFill=0;endArrow=classicThin;endFill=1;startSize=5;endSize=5;" parent="jAqfNEqAzGO9UF7VZpTB-1" source="jAqfNEqAzGO9UF7VZpTB-319" target="jAqfNEqAzGO9UF7VZpTB-312" edge="1">
                    <mxGeometry relative="1" as="geometry">
                        <Array as="points">
                            <mxPoint x="222.5" y="800"/>
                            <mxPoint x="272.5" y="800"/>
                        </Array>
                    </mxGeometry>
                </mxCell>
                <mxCell id="jAqfNEqAzGO9UF7VZpTB-319" value="" style="whiteSpace=wrap;html=1;rounded=0;shadow=0;comic=0;labelBackgroundColor=none;strokeWidth=1;fillColor=#000000;fontFamily=Verdana;fontSize=12;align=center;rotation=0;strokeColor=#000000;" parent="jAqfNEqAzGO9UF7VZpTB-1" vertex="1">
                    <mxGeometry x="107.5" y="760" width="147" height="10" as="geometry"/>
                </mxCell>
                <mxCell id="106" style="edgeStyle=none;html=1;exitX=0.5;exitY=1;exitDx=0;exitDy=0;entryX=0.5;entryY=0;entryDx=0;entryDy=0;strokeColor=#000000;" edge="1" parent="jAqfNEqAzGO9UF7VZpTB-1" source="105" target="jAqfNEqAzGO9UF7VZpTB-258">
                    <mxGeometry relative="1" as="geometry"/>
                </mxCell>
                <mxCell id="105" value="manually accept order" style="rounded=1;whiteSpace=wrap;html=1;shadow=0;comic=0;labelBackgroundColor=none;strokeWidth=1;fontFamily=Verdana;fontSize=12;align=center;arcSize=50;strokeColor=#000000;" vertex="1" parent="jAqfNEqAzGO9UF7VZpTB-1">
                    <mxGeometry x="74" y="190" width="214" height="30" as="geometry"/>
                </mxCell>
                <mxCell id="jAqfNEqAzGO9UF7VZpTB-266" style="edgeStyle=orthogonalEdgeStyle;shape=connector;rounded=0;orthogonalLoop=1;jettySize=auto;html=1;labelBackgroundColor=none;strokeColor=#000000;strokeWidth=1;align=center;verticalAlign=middle;fontFamily=Verdana;fontSize=12;fontColor=default;startArrow=none;startFill=0;endArrow=classicThin;endFill=1;startSize=5;endSize=5;" parent="1c1d494c118603dd-1" source="jAqfNEqAzGO9UF7VZpTB-261" target="jAqfNEqAzGO9UF7VZpTB-263" edge="1">
                    <mxGeometry relative="1" as="geometry">
                        <Array as="points">
                            <mxPoint x="112.5" y="456"/>
                            <mxPoint x="502.5" y="456"/>
                        </Array>
                    </mxGeometry>
                </mxCell>
                <mxCell id="jAqfNEqAzGO9UF7VZpTB-257" style="edgeStyle=orthogonalEdgeStyle;shape=connector;rounded=0;orthogonalLoop=1;jettySize=auto;html=1;labelBackgroundColor=none;strokeColor=#000000;strokeWidth=1;align=center;verticalAlign=middle;fontFamily=Verdana;fontSize=12;fontColor=default;startArrow=none;startFill=0;endArrow=classicThin;endFill=1;startSize=5;endSize=5;" parent="1c1d494c118603dd-1" source="jAqfNEqAzGO9UF7VZpTB-255" target="jAqfNEqAzGO9UF7VZpTB-252" edge="1">
                    <mxGeometry relative="1" as="geometry">
                        <mxPoint x="847.5" y="378" as="targetPoint"/>
                        <Array as="points">
                            <mxPoint x="574.5" y="368"/>
                        </Array>
                    </mxGeometry>
                </mxCell>
                <mxCell id="jAqfNEqAzGO9UF7VZpTB-362" style="edgeStyle=orthogonalEdgeStyle;shape=connector;rounded=0;orthogonalLoop=1;jettySize=auto;html=1;entryX=0.583;entryY=-0.149;entryDx=0;entryDy=0;entryPerimeter=0;labelBackgroundColor=none;strokeColor=#000000;strokeWidth=1;align=center;verticalAlign=middle;fontFamily=Verdana;fontSize=12;fontColor=default;startArrow=none;startFill=0;endArrow=classicThin;endFill=1;startSize=5;endSize=5;exitX=0.5;exitY=1;exitDx=0;exitDy=0;" parent="1c1d494c118603dd-1" source="jAqfNEqAzGO9UF7VZpTB-303" target="jAqfNEqAzGO9UF7VZpTB-319" edge="1">
                    <mxGeometry relative="1" as="geometry">
                        <mxPoint x="479.86" y="676" as="sourcePoint"/>
                        <mxPoint x="192.4999999999999" y="692.9499999999998" as="targetPoint"/>
                    </mxGeometry>
                </mxCell>
                <mxCell id="jAqfNEqAzGO9UF7VZpTB-317" style="edgeStyle=orthogonalEdgeStyle;shape=connector;rounded=0;orthogonalLoop=1;jettySize=auto;html=1;labelBackgroundColor=none;strokeColor=#000000;strokeWidth=1;align=center;verticalAlign=middle;fontFamily=Verdana;fontSize=12;fontColor=default;startArrow=none;startFill=0;endArrow=classicThin;endFill=1;startSize=5;endSize=5;exitX=0.5;exitY=1;exitDx=0;exitDy=0;" parent="1c1d494c118603dd-1" source="jAqfNEqAzGO9UF7VZpTB-312" target="jAqfNEqAzGO9UF7VZpTB-316" edge="1">
                    <mxGeometry relative="1" as="geometry"/>
                </mxCell>
                <mxCell id="1c1d494c118603dd-4" value="client" style="swimlane;html=1;startSize=20;strokeColor=#000000;" parent="1c1d494c118603dd-1" vertex="1">
                    <mxGeometry x="360" y="50" width="360" height="1150" as="geometry"/>
                </mxCell>
                <mxCell id="60571a20871a0731-5" value="" style="shape=mxgraph.bpmn.shape;html=1;verticalLabelPosition=bottom;labelBackgroundColor=#ffffff;verticalAlign=top;perimeter=ellipsePerimeter;outline=end;symbol=terminate;rounded=0;shadow=0;comic=0;strokeWidth=1;fontFamily=Verdana;fontSize=12;align=center;strokeColor=#000000;" parent="1c1d494c118603dd-4" vertex="1">
                    <mxGeometry x="172.5" y="1060" width="40" height="40" as="geometry"/>
                </mxCell>
                <mxCell id="jAqfNEqAzGO9UF7VZpTB-253" value="make order" style="rounded=1;whiteSpace=wrap;html=1;shadow=0;comic=0;labelBackgroundColor=none;strokeWidth=1;fontFamily=Verdana;fontSize=12;align=center;arcSize=50;strokeColor=#000000;" parent="1c1d494c118603dd-4" vertex="1">
                    <mxGeometry x="128.5" y="110" width="100" height="40" as="geometry"/>
                </mxCell>
                <mxCell id="jAqfNEqAzGO9UF7VZpTB-254" style="edgeStyle=none;shape=connector;rounded=0;orthogonalLoop=1;jettySize=auto;html=1;labelBackgroundColor=none;strokeColor=#000000;strokeWidth=1;align=center;verticalAlign=middle;fontFamily=Verdana;fontSize=12;fontColor=default;startArrow=none;startFill=0;endArrow=classicThin;endFill=1;startSize=5;endSize=5;" parent="1c1d494c118603dd-4" source="60571a20871a0731-4" target="jAqfNEqAzGO9UF7VZpTB-253" edge="1">
                    <mxGeometry relative="1" as="geometry"/>
                </mxCell>
                <mxCell id="60571a20871a0731-4" value="" style="ellipse;whiteSpace=wrap;html=1;rounded=0;shadow=0;comic=0;labelBackgroundColor=none;strokeWidth=1;fillColor=#000000;fontFamily=Verdana;fontSize=12;align=center;strokeColor=#000000;" parent="1c1d494c118603dd-4" vertex="1">
                    <mxGeometry x="158.5" y="40" width="40" height="40" as="geometry"/>
                </mxCell>
                <mxCell id="jAqfNEqAzGO9UF7VZpTB-252" value="download&lt;br&gt;installer" style="rounded=1;whiteSpace=wrap;html=1;shadow=0;comic=0;labelBackgroundColor=none;strokeWidth=1;fontFamily=Verdana;fontSize=12;align=center;arcSize=50;strokeColor=#000000;" parent="1c1d494c118603dd-4" vertex="1">
                    <mxGeometry x="152.5" y="338" width="123" height="38" as="geometry"/>
                </mxCell>
                <mxCell id="jAqfNEqAzGO9UF7VZpTB-285" style="edgeStyle=orthogonalEdgeStyle;shape=connector;rounded=0;orthogonalLoop=1;jettySize=auto;html=1;entryX=0.5;entryY=0;entryDx=0;entryDy=0;labelBackgroundColor=none;strokeColor=#000000;strokeWidth=1;align=center;verticalAlign=middle;fontFamily=Verdana;fontSize=12;fontColor=default;startArrow=none;startFill=0;endArrow=classicThin;endFill=1;startSize=5;endSize=5;" parent="1c1d494c118603dd-4" source="jAqfNEqAzGO9UF7VZpTB-263" target="jAqfNEqAzGO9UF7VZpTB-284" edge="1">
                    <mxGeometry relative="1" as="geometry"/>
                </mxCell>
                <mxCell id="jAqfNEqAzGO9UF7VZpTB-263" value="" style="whiteSpace=wrap;html=1;rounded=0;shadow=0;comic=0;labelBackgroundColor=none;strokeWidth=1;fillColor=#000000;fontFamily=Verdana;fontSize=12;align=center;rotation=0;strokeColor=#000000;" parent="1c1d494c118603dd-4" vertex="1">
                    <mxGeometry x="112.5" y="426" width="147" height="10" as="geometry"/>
                </mxCell>
                <mxCell id="jAqfNEqAzGO9UF7VZpTB-265" style="edgeStyle=orthogonalEdgeStyle;shape=connector;rounded=0;orthogonalLoop=1;jettySize=auto;html=1;entryX=0.689;entryY=0.246;entryDx=0;entryDy=0;entryPerimeter=0;labelBackgroundColor=none;strokeColor=#000000;strokeWidth=1;align=center;verticalAlign=middle;fontFamily=Verdana;fontSize=12;fontColor=default;startArrow=none;startFill=0;endArrow=classicThin;endFill=1;startSize=5;endSize=5;" parent="1c1d494c118603dd-4" source="jAqfNEqAzGO9UF7VZpTB-252" target="jAqfNEqAzGO9UF7VZpTB-263" edge="1">
                    <mxGeometry relative="1" as="geometry"/>
                </mxCell>
                <mxCell id="jAqfNEqAzGO9UF7VZpTB-311" style="edgeStyle=orthogonalEdgeStyle;shape=connector;rounded=0;orthogonalLoop=1;jettySize=auto;html=1;labelBackgroundColor=none;strokeColor=#000000;strokeWidth=1;align=center;verticalAlign=middle;fontFamily=Verdana;fontSize=12;fontColor=default;startArrow=none;startFill=0;endArrow=classicThin;endFill=1;startSize=5;endSize=5;" parent="1c1d494c118603dd-4" source="jAqfNEqAzGO9UF7VZpTB-284" target="jAqfNEqAzGO9UF7VZpTB-308" edge="1">
                    <mxGeometry relative="1" as="geometry"/>
                </mxCell>
                <mxCell id="jAqfNEqAzGO9UF7VZpTB-284" value="install software" style="rounded=1;whiteSpace=wrap;html=1;shadow=0;comic=0;labelBackgroundColor=none;strokeWidth=1;fontFamily=Verdana;fontSize=12;align=center;arcSize=50;strokeColor=#000000;" parent="1c1d494c118603dd-4" vertex="1">
                    <mxGeometry x="126" y="476" width="120" height="30" as="geometry"/>
                </mxCell>
                <mxCell id="jAqfNEqAzGO9UF7VZpTB-303" value="send registration code &lt;br&gt;(via e-mail)" style="rounded=1;whiteSpace=wrap;html=1;shadow=0;comic=0;labelBackgroundColor=none;strokeWidth=1;fontFamily=Verdana;fontSize=12;align=center;arcSize=50;strokeColor=#000000;" parent="1c1d494c118603dd-4" vertex="1">
                    <mxGeometry x="102.75" y="646" width="166.5" height="60" as="geometry"/>
                </mxCell>
                <mxCell id="jAqfNEqAzGO9UF7VZpTB-309" style="edgeStyle=orthogonalEdgeStyle;shape=connector;rounded=0;orthogonalLoop=1;jettySize=auto;html=1;labelBackgroundColor=none;strokeColor=#000000;strokeWidth=1;align=center;verticalAlign=middle;fontFamily=Verdana;fontSize=12;fontColor=default;startArrow=none;startFill=0;endArrow=classicThin;endFill=1;startSize=5;endSize=5;" parent="1c1d494c118603dd-4" source="jAqfNEqAzGO9UF7VZpTB-308" target="jAqfNEqAzGO9UF7VZpTB-303" edge="1">
                    <mxGeometry relative="1" as="geometry"/>
                </mxCell>
                <mxCell id="jAqfNEqAzGO9UF7VZpTB-308" value="enter client data &lt;br&gt;(nip, email, comapny name etc.)" style="rounded=1;whiteSpace=wrap;html=1;shadow=0;comic=0;labelBackgroundColor=none;strokeWidth=1;fontFamily=Verdana;fontSize=12;align=center;arcSize=50;strokeColor=#000000;" parent="1c1d494c118603dd-4" vertex="1">
                    <mxGeometry x="73.63" y="546" width="224.75" height="70" as="geometry"/>
                </mxCell>
                <mxCell id="jAqfNEqAzGO9UF7VZpTB-318" style="edgeStyle=orthogonalEdgeStyle;shape=connector;rounded=0;orthogonalLoop=1;jettySize=auto;html=1;labelBackgroundColor=none;strokeColor=#000000;strokeWidth=1;align=center;verticalAlign=middle;fontFamily=Verdana;fontSize=12;fontColor=default;startArrow=none;startFill=0;endArrow=classicThin;endFill=1;startSize=5;endSize=5;" parent="1c1d494c118603dd-4" source="jAqfNEqAzGO9UF7VZpTB-316" target="60571a20871a0731-5" edge="1">
                    <mxGeometry relative="1" as="geometry"/>
                </mxCell>
                <mxCell id="jAqfNEqAzGO9UF7VZpTB-316" value="activate software&lt;br&gt;(manually)" style="rounded=1;whiteSpace=wrap;html=1;shadow=0;comic=0;labelBackgroundColor=none;strokeWidth=1;fontFamily=Verdana;fontSize=12;align=center;arcSize=50;strokeColor=#000000;" parent="1c1d494c118603dd-4" vertex="1">
                    <mxGeometry x="122.5" y="970" width="138.5" height="50" as="geometry"/>
                </mxCell>
                <mxCell id="2" value="example of efficient registration and activation process using LicenseHub" style="swimlane;html=1;childLayout=stackLayout;startSize=50;rounded=0;shadow=0;comic=0;labelBackgroundColor=none;strokeWidth=1;fontFamily=Verdana;fontSize=12;align=center;strokeColor=#000000;" parent="1" vertex="1">
                    <mxGeometry x="880" y="10" width="1010" height="1530" as="geometry">
                        <mxRectangle x="40" y="20" width="440" height="30" as="alternateBounds"/>
                    </mxGeometry>
                </mxCell>
                <mxCell id="5" style="edgeStyle=orthogonalEdgeStyle;shape=connector;rounded=0;orthogonalLoop=1;jettySize=auto;html=1;labelBackgroundColor=none;strokeColor=#000000;strokeWidth=1;align=center;verticalAlign=middle;fontFamily=Verdana;fontSize=12;fontColor=default;startArrow=none;startFill=0;endArrow=classicThin;endFill=1;startSize=5;endSize=5;exitX=0.5;exitY=1;exitDx=0;exitDy=0;entryX=0.5;entryY=0;entryDx=0;entryDy=0;" parent="2" source="40" target="99" edge="1">
                    <mxGeometry relative="1" as="geometry">
                        <mxPoint x="488.49999999999955" y="185" as="sourcePoint"/>
                    </mxGeometry>
                </mxCell>
                <mxCell id="3" style="edgeStyle=orthogonalEdgeStyle;shape=connector;rounded=0;orthogonalLoop=1;jettySize=auto;html=1;labelBackgroundColor=none;strokeColor=#000000;strokeWidth=1;align=center;verticalAlign=middle;fontFamily=Verdana;fontSize=12;fontColor=default;startArrow=none;startFill=0;endArrow=classicThin;endFill=1;startSize=5;endSize=5;entryX=0.25;entryY=0;entryDx=0;entryDy=0;exitX=0.5;exitY=1;exitDx=0;exitDy=0;" parent="2" source="14" target="45" edge="1">
                    <mxGeometry relative="1" as="geometry">
                        <mxPoint x="490.0588235294117" y="366" as="targetPoint"/>
                    </mxGeometry>
                </mxCell>
                <mxCell id="6" value="customer service" style="swimlane;html=1;startSize=20;strokeColor=#000000;" parent="2" vertex="1">
                    <mxGeometry y="50" width="360" height="1480" as="geometry"/>
                </mxCell>
                <mxCell id="7" value="store registration code&lt;br&gt;in LicenseHub&lt;br&gt;(automatically)" style="rounded=1;whiteSpace=wrap;html=1;shadow=0;comic=0;labelBackgroundColor=none;strokeWidth=1;fontFamily=Verdana;fontSize=12;align=center;arcSize=50;strokeColor=#000000;" parent="6" vertex="1">
                    <mxGeometry x="21.25" y="1097" width="165" height="59" as="geometry"/>
                </mxCell>
                <mxCell id="8" value="generate activation code&lt;br&gt;(automatically)" style="rounded=1;whiteSpace=wrap;html=1;shadow=0;comic=0;labelBackgroundColor=none;strokeWidth=1;fontFamily=Verdana;fontSize=12;align=center;arcSize=50;strokeColor=#000000;" parent="6" vertex="1">
                    <mxGeometry x="200" y="1097" width="135" height="65" as="geometry"/>
                </mxCell>
                <mxCell id="9" value="use internal activation code generator" style="shape=note;whiteSpace=wrap;html=1;rounded=0;shadow=0;comic=0;labelBackgroundColor=none;strokeWidth=1;fontFamily=Verdana;fontSize=12;align=center;size=20;strokeColor=#000000;" parent="6" vertex="1">
                    <mxGeometry x="76.25" y="1206" width="123.75" height="62" as="geometry"/>
                </mxCell>
                <mxCell id="10" value="" style="whiteSpace=wrap;html=1;rounded=0;shadow=0;comic=0;labelBackgroundColor=none;strokeWidth=1;fillColor=#000000;fontFamily=Verdana;fontSize=12;align=center;rotation=0;strokeColor=#000000;" parent="6" vertex="1">
                    <mxGeometry x="104.36999999999999" y="280" width="147" height="10" as="geometry"/>
                </mxCell>
                <mxCell id="11" style="edgeStyle=orthogonalEdgeStyle;shape=connector;rounded=0;orthogonalLoop=1;jettySize=auto;html=1;labelBackgroundColor=none;strokeColor=#000000;strokeWidth=1;align=center;verticalAlign=middle;fontFamily=Verdana;fontSize=12;fontColor=default;startArrow=none;startFill=0;endArrow=classicThin;endFill=1;startSize=5;endSize=5;" parent="6" source="10" target="14" edge="1">
                    <mxGeometry relative="1" as="geometry"/>
                </mxCell>
                <mxCell id="12" value="grant access to installer&lt;br&gt;(automatically)" style="rounded=1;whiteSpace=wrap;html=1;shadow=0;comic=0;labelBackgroundColor=none;strokeWidth=1;fontFamily=Verdana;fontSize=12;align=center;arcSize=50;strokeColor=#000000;" parent="6" vertex="1">
                    <mxGeometry x="199.37" y="338" width="125" height="62" as="geometry"/>
                </mxCell>
                <mxCell id="13" style="edgeStyle=orthogonalEdgeStyle;shape=connector;rounded=0;orthogonalLoop=1;jettySize=auto;html=1;labelBackgroundColor=none;strokeColor=#000000;strokeWidth=1;align=center;verticalAlign=middle;fontFamily=Verdana;fontSize=12;fontColor=default;startArrow=none;startFill=0;endArrow=classicThin;endFill=1;startSize=5;endSize=5;" parent="6" source="10" target="12" edge="1">
                    <mxGeometry relative="1" as="geometry"/>
                </mxCell>
                <mxCell id="14" value="send installer verification code&lt;br&gt;(automatically)" style="rounded=1;whiteSpace=wrap;html=1;shadow=0;comic=0;labelBackgroundColor=none;strokeWidth=1;fontFamily=Verdana;fontSize=12;align=center;arcSize=50;strokeColor=#000000;" parent="6" vertex="1">
                    <mxGeometry x="35.620000000000005" y="360" width="140" height="60" as="geometry"/>
                </mxCell>
                <mxCell id="15" style="edgeStyle=none;rounded=0;html=1;dashed=1;labelBackgroundColor=none;startArrow=none;startFill=0;startSize=5;endArrow=oval;endFill=0;endSize=5;jettySize=auto;orthogonalLoop=1;strokeWidth=1;fontFamily=Verdana;fontSize=12;strokeColor=#000000;" parent="6" source="9" target="8" edge="1">
                    <mxGeometry relative="1" as="geometry">
                        <mxPoint x="1478.75" y="1105" as="sourcePoint"/>
                        <mxPoint x="1798.75" y="1065" as="targetPoint"/>
                    </mxGeometry>
                </mxCell>
                <mxCell id="16" style="edgeStyle=orthogonalEdgeStyle;shape=connector;rounded=0;orthogonalLoop=1;jettySize=auto;html=1;labelBackgroundColor=none;strokeColor=#000000;strokeWidth=1;align=center;verticalAlign=middle;fontFamily=Verdana;fontSize=12;fontColor=default;startArrow=none;startFill=0;endArrow=classicThin;endFill=1;startSize=5;endSize=5;entryX=0.5;entryY=0;entryDx=0;entryDy=0;" parent="6" source="18" target="7" edge="1">
                    <mxGeometry relative="1" as="geometry">
                        <mxPoint x="103.80882352941171" y="1073" as="targetPoint"/>
                        <Array as="points">
                            <mxPoint x="140" y="1065"/>
                            <mxPoint x="104" y="1065"/>
                        </Array>
                    </mxGeometry>
                </mxCell>
                <mxCell id="17" style="edgeStyle=orthogonalEdgeStyle;shape=connector;rounded=0;orthogonalLoop=1;jettySize=auto;html=1;labelBackgroundColor=none;strokeColor=#000000;strokeWidth=1;align=center;verticalAlign=middle;fontFamily=Verdana;fontSize=12;fontColor=default;startArrow=none;startFill=0;endArrow=classicThin;endFill=1;startSize=5;endSize=5;" parent="6" source="18" target="8" edge="1">
                    <mxGeometry relative="1" as="geometry">
                        <Array as="points">
                            <mxPoint x="214" y="1072"/>
                            <mxPoint x="264" y="1072"/>
                        </Array>
                    </mxGeometry>
                </mxCell>
                <mxCell id="18" value="" style="whiteSpace=wrap;html=1;rounded=0;shadow=0;comic=0;labelBackgroundColor=none;strokeWidth=1;fillColor=#000000;fontFamily=Verdana;fontSize=12;align=center;rotation=0;strokeColor=#000000;" parent="6" vertex="1">
                    <mxGeometry x="98.75" y="1022" width="147" height="10" as="geometry"/>
                </mxCell>
                <mxCell id="71" style="edgeStyle=none;html=1;entryX=0.5;entryY=0;entryDx=0;entryDy=0;strokeColor=#000000;" parent="6" source="55" target="73" edge="1">
                    <mxGeometry relative="1" as="geometry"/>
                </mxCell>
                <mxCell id="55" value="periodically fetch data with server&lt;br&gt;(automatically)" style="rounded=1;whiteSpace=wrap;html=1;shadow=0;comic=0;labelBackgroundColor=none;strokeWidth=1;fontFamily=Verdana;fontSize=12;align=center;arcSize=50;strokeColor=#000000;" parent="6" vertex="1">
                    <mxGeometry x="89.88" y="840" width="161.5" height="55.5" as="geometry"/>
                </mxCell>
                <mxCell id="75" style="edgeStyle=none;html=1;entryX=0.5;entryY=0;entryDx=0;entryDy=0;startArrow=none;startFill=0;strokeColor=#000000;" parent="6" source="73" target="18" edge="1">
                    <mxGeometry relative="1" as="geometry"/>
                </mxCell>
                <mxCell id="73" value="accept product registration&lt;br&gt;(manually or automatically)" style="rounded=1;whiteSpace=wrap;html=1;shadow=0;comic=0;labelBackgroundColor=none;strokeWidth=1;fontFamily=Verdana;fontSize=12;align=center;arcSize=50;strokeColor=#000000;" parent="6" vertex="1">
                    <mxGeometry x="62.25" y="930" width="220" height="60" as="geometry"/>
                </mxCell>
                <mxCell id="100" style="edgeStyle=none;html=1;entryX=0.5;entryY=0;entryDx=0;entryDy=0;strokeColor=#000000;" edge="1" parent="6" source="99" target="10">
                    <mxGeometry relative="1" as="geometry"/>
                </mxCell>
                <mxCell id="99" value="manually or automatically&lt;br&gt;accept and add order" style="rounded=1;whiteSpace=wrap;html=1;shadow=0;comic=0;labelBackgroundColor=none;strokeWidth=1;fontFamily=Verdana;fontSize=12;align=center;arcSize=50;strokeColor=#000000;" vertex="1" parent="6">
                    <mxGeometry x="78.13" y="200" width="196.75" height="50" as="geometry"/>
                </mxCell>
                <mxCell id="4" style="edgeStyle=orthogonalEdgeStyle;shape=connector;rounded=0;orthogonalLoop=1;jettySize=auto;html=1;labelBackgroundColor=none;strokeColor=#000000;strokeWidth=1;align=center;verticalAlign=middle;fontFamily=Verdana;fontSize=12;fontColor=default;startArrow=none;startFill=0;endArrow=classicThin;endFill=1;startSize=5;endSize=5;entryX=0.5;entryY=0;entryDx=0;entryDy=0;exitX=0.5;exitY=1;exitDx=0;exitDy=0;" parent="2" source="12" target="43" edge="1">
                    <mxGeometry relative="1" as="geometry">
                        <mxPoint x="920" y="350" as="targetPoint"/>
                    </mxGeometry>
                </mxCell>
                <mxCell id="19" value="server" style="swimlane;html=1;startSize=20;strokeColor=#000000;" parent="2" vertex="1">
                    <mxGeometry x="360" y="50" width="300" height="1480" as="geometry"/>
                </mxCell>
                <mxCell id="54" value="store registration code&lt;br&gt;on server&lt;br&gt;(automatically)" style="rounded=1;whiteSpace=wrap;html=1;shadow=0;comic=0;labelBackgroundColor=none;strokeWidth=1;fontFamily=Verdana;fontSize=12;align=center;arcSize=50;strokeColor=#000000;" parent="19" vertex="1">
                    <mxGeometry x="67.5" y="840" width="165" height="59" as="geometry"/>
                </mxCell>
                <mxCell id="77" value="store generated activation code&lt;br&gt;on server&lt;br&gt;(automatically)" style="rounded=1;whiteSpace=wrap;html=1;shadow=0;comic=0;labelBackgroundColor=none;strokeWidth=1;fontFamily=Verdana;fontSize=12;align=center;arcSize=50;strokeColor=#000000;" parent="19" vertex="1">
                    <mxGeometry x="28.75" y="1206" width="242.5" height="59" as="geometry"/>
                </mxCell>
                <mxCell id="37" style="edgeStyle=orthogonalEdgeStyle;shape=connector;rounded=0;orthogonalLoop=1;jettySize=auto;html=1;entryX=0.5;entryY=0;entryDx=0;entryDy=0;labelBackgroundColor=none;strokeColor=#000000;strokeWidth=1;align=center;verticalAlign=middle;fontFamily=Verdana;fontSize=12;fontColor=default;startArrow=none;startFill=0;endArrow=classicThin;endFill=1;startSize=5;endSize=5;exitX=0.5;exitY=1;exitDx=0;exitDy=0;" parent="2" source="49" target="54" edge="1">
                    <mxGeometry relative="1" as="geometry">
                        <mxPoint x="419.05999999999995" y="833" as="sourcePoint"/>
                        <mxPoint x="179.9999999999999" y="794.9499999999998" as="targetPoint"/>
                    </mxGeometry>
                </mxCell>
                <mxCell id="36" style="edgeStyle=orthogonalEdgeStyle;shape=connector;rounded=0;orthogonalLoop=1;jettySize=auto;html=1;labelBackgroundColor=none;strokeColor=#000000;strokeWidth=1;align=center;verticalAlign=middle;fontFamily=Verdana;fontSize=12;fontColor=default;startArrow=none;startFill=0;endArrow=classicThin;endFill=1;startSize=5;endSize=5;" parent="2" source="8" target="77" edge="1">
                    <mxGeometry relative="1" as="geometry">
                        <Array as="points">
                            <mxPoint x="267" y="1232"/>
                            <mxPoint x="510" y="1232"/>
                        </Array>
                        <mxPoint x="450" y="1192" as="targetPoint"/>
                    </mxGeometry>
                </mxCell>
                <mxCell id="97" style="edgeStyle=none;html=1;startArrow=classic;startFill=1;exitX=1;exitY=0.5;exitDx=0;exitDy=0;entryX=0;entryY=0.5;entryDx=0;entryDy=0;strokeColor=#000000;" parent="2" source="77" target="96" edge="1">
                    <mxGeometry relative="1" as="geometry">
                        <mxPoint x="695.5" y="1262" as="sourcePoint"/>
                        <mxPoint x="900" y="1262" as="targetPoint"/>
                    </mxGeometry>
                </mxCell>
                <mxCell id="72" style="edgeStyle=none;html=1;startArrow=classic;startFill=1;strokeColor=#000000;" parent="2" source="55" target="54" edge="1">
                    <mxGeometry relative="1" as="geometry"/>
                </mxCell>
                <mxCell id="38" value="client" style="swimlane;html=1;startSize=20;strokeColor=#000000;" parent="2" vertex="1">
                    <mxGeometry x="660" y="50" width="350" height="1480" as="geometry"/>
                </mxCell>
                <mxCell id="39" value="" style="shape=mxgraph.bpmn.shape;html=1;verticalLabelPosition=bottom;labelBackgroundColor=#ffffff;verticalAlign=top;perimeter=ellipsePerimeter;outline=end;symbol=terminate;rounded=0;shadow=0;comic=0;strokeWidth=1;fontFamily=Verdana;fontSize=12;align=center;strokeColor=#000000;" parent="38" vertex="1">
                    <mxGeometry x="167" y="1392" width="40" height="40" as="geometry"/>
                </mxCell>
                <mxCell id="40" value="make order" style="rounded=1;whiteSpace=wrap;html=1;shadow=0;comic=0;labelBackgroundColor=none;strokeWidth=1;fontFamily=Verdana;fontSize=12;align=center;arcSize=50;strokeColor=#000000;" parent="38" vertex="1">
                    <mxGeometry x="130" y="110" width="100" height="40" as="geometry"/>
                </mxCell>
                <mxCell id="41" style="edgeStyle=none;shape=connector;rounded=0;orthogonalLoop=1;jettySize=auto;html=1;labelBackgroundColor=none;strokeColor=#000000;strokeWidth=1;align=center;verticalAlign=middle;fontFamily=Verdana;fontSize=12;fontColor=default;startArrow=none;startFill=0;endArrow=classicThin;endFill=1;startSize=5;endSize=5;" parent="38" source="42" target="40" edge="1">
                    <mxGeometry relative="1" as="geometry"/>
                </mxCell>
                <mxCell id="42" value="" style="ellipse;whiteSpace=wrap;html=1;rounded=0;shadow=0;comic=0;labelBackgroundColor=none;strokeWidth=1;fillColor=#000000;fontFamily=Verdana;fontSize=12;align=center;strokeColor=#000000;" parent="38" vertex="1">
                    <mxGeometry x="158.5" y="40" width="40" height="40" as="geometry"/>
                </mxCell>
                <mxCell id="43" value="download&lt;br&gt;installer" style="rounded=1;whiteSpace=wrap;html=1;shadow=0;comic=0;labelBackgroundColor=none;strokeWidth=1;fontFamily=Verdana;fontSize=12;align=center;arcSize=50;strokeColor=#000000;" parent="38" vertex="1">
                    <mxGeometry x="166.43" y="440" width="123" height="38" as="geometry"/>
                </mxCell>
                <mxCell id="44" style="edgeStyle=orthogonalEdgeStyle;shape=connector;rounded=0;orthogonalLoop=1;jettySize=auto;html=1;entryX=0.5;entryY=0;entryDx=0;entryDy=0;labelBackgroundColor=none;strokeColor=#000000;strokeWidth=1;align=center;verticalAlign=middle;fontFamily=Verdana;fontSize=12;fontColor=default;startArrow=none;startFill=0;endArrow=classicThin;endFill=1;startSize=5;endSize=5;" parent="38" source="45" target="48" edge="1">
                    <mxGeometry relative="1" as="geometry"/>
                </mxCell>
                <mxCell id="45" value="" style="whiteSpace=wrap;html=1;rounded=0;shadow=0;comic=0;labelBackgroundColor=none;strokeWidth=1;fillColor=#000000;fontFamily=Verdana;fontSize=12;align=center;rotation=0;strokeColor=#000000;" parent="38" vertex="1">
                    <mxGeometry x="101.5" y="522" width="147" height="10" as="geometry"/>
                </mxCell>
                <mxCell id="46" style="edgeStyle=orthogonalEdgeStyle;shape=connector;rounded=0;orthogonalLoop=1;jettySize=auto;html=1;entryX=0.689;entryY=0.246;entryDx=0;entryDy=0;entryPerimeter=0;labelBackgroundColor=none;strokeColor=#000000;strokeWidth=1;align=center;verticalAlign=middle;fontFamily=Verdana;fontSize=12;fontColor=default;startArrow=none;startFill=0;endArrow=classicThin;endFill=1;startSize=5;endSize=5;" parent="38" source="43" target="45" edge="1">
                    <mxGeometry relative="1" as="geometry"/>
                </mxCell>
                <mxCell id="47" style="edgeStyle=orthogonalEdgeStyle;shape=connector;rounded=0;orthogonalLoop=1;jettySize=auto;html=1;labelBackgroundColor=none;strokeColor=#000000;strokeWidth=1;align=center;verticalAlign=middle;fontFamily=Verdana;fontSize=12;fontColor=default;startArrow=none;startFill=0;endArrow=classicThin;endFill=1;startSize=5;endSize=5;" parent="38" source="48" target="51" edge="1">
                    <mxGeometry relative="1" as="geometry"/>
                </mxCell>
                <mxCell id="48" value="install software" style="rounded=1;whiteSpace=wrap;html=1;shadow=0;comic=0;labelBackgroundColor=none;strokeWidth=1;fontFamily=Verdana;fontSize=12;align=center;arcSize=50;strokeColor=#000000;" parent="38" vertex="1">
                    <mxGeometry x="115" y="558" width="120" height="30" as="geometry"/>
                </mxCell>
                <mxCell id="49" value="send registration code&lt;br&gt;via sold software to web database&lt;br&gt;(automatically)" style="rounded=1;whiteSpace=wrap;html=1;shadow=0;comic=0;labelBackgroundColor=none;strokeWidth=1;fontFamily=Verdana;fontSize=12;align=center;arcSize=50;strokeColor=#000000;" parent="38" vertex="1">
                    <mxGeometry x="60.559999999999995" y="728" width="228.87" height="70" as="geometry"/>
                </mxCell>
                <mxCell id="50" style="edgeStyle=orthogonalEdgeStyle;shape=connector;rounded=0;orthogonalLoop=1;jettySize=auto;html=1;labelBackgroundColor=none;strokeColor=#000000;strokeWidth=1;align=center;verticalAlign=middle;fontFamily=Verdana;fontSize=12;fontColor=default;startArrow=none;startFill=0;endArrow=classicThin;endFill=1;startSize=5;endSize=5;" parent="38" source="51" target="49" edge="1">
                    <mxGeometry relative="1" as="geometry"/>
                </mxCell>
                <mxCell id="51" value="enter client data&lt;br&gt;(nip, email, comapny name etc.)" style="rounded=1;whiteSpace=wrap;html=1;shadow=0;comic=0;labelBackgroundColor=none;strokeWidth=1;fontFamily=Verdana;fontSize=12;align=center;arcSize=50;strokeColor=#000000;" parent="38" vertex="1">
                    <mxGeometry x="62.63" y="628" width="224.75" height="70" as="geometry"/>
                </mxCell>
                <mxCell id="52" style="edgeStyle=orthogonalEdgeStyle;shape=connector;rounded=0;orthogonalLoop=1;jettySize=auto;html=1;labelBackgroundColor=none;strokeColor=#000000;strokeWidth=1;align=center;verticalAlign=middle;fontFamily=Verdana;fontSize=12;fontColor=default;startArrow=none;startFill=0;endArrow=classicThin;endFill=1;startSize=5;endSize=5;" parent="38" source="53" target="39" edge="1">
                    <mxGeometry relative="1" as="geometry"/>
                </mxCell>
                <mxCell id="53" value="activate software&lt;br&gt;(automatically)" style="rounded=1;whiteSpace=wrap;html=1;shadow=0;comic=0;labelBackgroundColor=none;strokeWidth=1;fontFamily=Verdana;fontSize=12;align=center;arcSize=50;strokeColor=#000000;" parent="38" vertex="1">
                    <mxGeometry x="123.5" y="1302" width="127" height="50" as="geometry"/>
                </mxCell>
                <mxCell id="98" style="edgeStyle=none;html=1;entryX=0.5;entryY=0;entryDx=0;entryDy=0;startArrow=none;startFill=0;strokeColor=#000000;" parent="38" source="96" target="53" edge="1">
                    <mxGeometry relative="1" as="geometry"/>
                </mxCell>
                <mxCell id="96" value="periodically fetch data with server&lt;br&gt;(automatically)" style="rounded=1;whiteSpace=wrap;html=1;shadow=0;comic=0;labelBackgroundColor=none;strokeWidth=1;fontFamily=Verdana;fontSize=12;align=center;arcSize=50;strokeColor=#000000;" parent="38" vertex="1">
                    <mxGeometry x="106.25" y="1206" width="161.5" height="60" as="geometry"/>
                </mxCell>
            </root>
        </mxGraphModel>
    </diagram>
</mxfile>